<svg xmlns="http://www.w3.org/2000/svg" xmlns:xlink="http://www.w3.org/1999/xlink" width="500" zoomAndPan="magnify" viewBox="0 0 375 374.999991" height="500" preserveAspectRatio="xMidYMid meet" version="1.0"><defs><g/><clipPath id="4c0c5355df"><path d="M 139 117 L 236.914062 117 L 236.914062 245.710938 L 139 245.710938 Z M 139 117 " clip-rule="nonzero"/></clipPath><clipPath id="606985542a"><path d="M 137.914062 82.960938 L 206 82.960938 L 206 125 L 137.914062 125 Z M 137.914062 82.960938 " clip-rule="nonzero"/></clipPath><clipPath id="3651299c66"><path d="M 203 198 L 223 198 L 223 245.710938 L 203 245.710938 Z M 203 198 " clip-rule="nonzero"/></clipPath><clipPath id="da4555015e"><path d="M 222 143 L 236.914062 143 L 236.914062 162 L 222 162 Z M 222 143 " clip-rule="nonzero"/></clipPath></defs><g clip-path="url(#4c0c5355df)"><path fill="#dfaf67" d="M 228.632812 160.21875 C 228.632812 160.21875 232.722656 161.921875 236.894531 161.203125 C 234.3125 157.867188 225.050781 145.644531 223.347656 143.386719 L 223.074219 143.042969 L 225.484375 143.890625 C 223.238281 141.570312 213.429688 127.75 213.429688 127.75 L 215.621094 127.730469 C 203.820312 117.863281 185.78125 117.292969 185.78125 117.292969 C 185.78125 117.292969 188.28125 118.0625 191.847656 121.234375 C 191.457031 121.09375 157.789062 110.039062 139.59375 147.664062 C 147.738281 137.613281 158.566406 133.734375 158.835938 133.640625 C 158.484375 133.851562 131.136719 151.050781 142.84375 179.101562 C 154.929688 208.089844 153.316406 216.085938 153.316406 216.085938 C 153.445312 215.835938 158.335938 206.105469 156.246094 188.816406 C 154.152344 171.527344 160.671875 163.488281 160.816406 163.3125 C 160.699219 163.601562 155.015625 177.59375 160.816406 194.578125 C 166.675781 211.742188 165.71875 221.144531 165.71875 221.144531 C 165.964844 220.9375 174.417969 213.886719 169.492188 193.640625 C 164.148438 171.671875 174.292969 162.085938 174.417969 161.96875 C 174.308594 162.21875 169.621094 172.84375 172.59375 188.78125 C 173.597656 194.050781 175.222656 199.117188 177.472656 203.984375 C 185.628906 221.855469 180.609375 237.910156 180.523438 238.1875 C 180.523438 238.1875 191.082031 225.140625 186.859375 201.277344 C 182.699219 177.699219 185.855469 167.886719 185.929688 167.65625 C 185.929688 167.671875 185.929688 167.6875 185.929688 167.703125 C 185.894531 168.582031 185.441406 181.824219 190.859375 196.457031 C 198.511719 217.109375 190.390625 239.484375 190.390625 239.484375 L 190.449219 239.421875 C 191.445312 238.324219 203.382812 224.699219 200.121094 206.105469 C 196.75 186.902344 199.59375 179.695312 199.648438 179.5625 C 199.648438 179.5625 200.605469 196.773438 206.003906 210.398438 C 211.367188 223.953125 203.621094 245.453125 203.53125 245.703125 C 203.933594 245.359375 218.128906 233.085938 213.292969 209.738281 C 213.292969 209.738281 220.535156 219.832031 218.894531 234.542969 C 218.894531 234.542969 226.988281 225.492188 218.894531 201.980469 C 225.585938 202.332031 231.917969 196.925781 231.917969 196.925781 C 231.917969 196.925781 214.433594 196.21875 206.691406 185.394531 C 212.546875 188.570312 217.484375 188.804688 217.484375 188.804688 C 217.484375 188.804688 204.246094 179.878906 204.117188 162.609375 C 204.117188 162.609375 201.066406 167.101562 201.191406 174.261719 C 201.191406 174.261719 187.621094 164.667969 186.726562 147.011719 C 184.523438 153.125 183.21875 158.597656 183.21875 158.597656 C 183.078125 158.152344 176.808594 138.605469 187.402344 125.539062 C 183.636719 143.214844 193.195312 153.207031 193.445312 153.460938 C 188.910156 143.457031 198.15625 134.519531 198.15625 134.519531 L 208 136.109375 C 200.425781 137.050781 197.160156 142.867188 198.75 147.03125 C 200.335938 151.195312 204.226562 157.078125 217.980469 158.871094 C 214.035156 159.824219 209.894531 161.6875 209.894531 161.6875 C 209.894531 161.6875 214.234375 169.988281 217.074219 170.789062 C 219.910156 171.589844 228.789062 173.25 228.789062 173.25 C 228.789062 173.25 231.898438 171.890625 234.070312 166.929688 L 234.140625 166.773438 C 234.207031 166.621094 234.269531 166.464844 234.335938 166.304688 L 234.34375 166.273438 C 232.253906 164.875 225.960938 161.640625 225.960938 161.640625 L 228.125 156.820312 Z M 205.4375 141.472656 C 212.070312 140.515625 218.8125 143.589844 218.8125 143.589844 L 217.648438 144.734375 L 222.226562 152.699219 C 217.132812 145.261719 205.4375 141.472656 205.4375 141.472656 Z M 205.4375 141.472656 " fill-opacity="1" fill-rule="nonzero"/></g><path fill="#dfaf67" d="M 213.128906 175.875 C 213.128906 175.875 219.222656 178.851562 219.746094 182.789062 L 220.398438 179.667969 C 220.398438 179.667969 222.882812 182.316406 221.042969 187.738281 C 226.074219 183.621094 228.78125 176.753906 228.78125 176.753906 C 228.78125 176.753906 221.199219 171.761719 213.128906 175.875 Z M 213.128906 175.875 " fill-opacity="1" fill-rule="nonzero"/><g clip-path="url(#606985542a)"><path fill="#dfaf67" d="M 198.875 99.125 L 205.207031 85.859375 L 199.058594 88.339844 L 197.410156 89.007812 C 197.148438 89.109375 196.914062 89.257812 196.703125 89.445312 C 196.492188 89.632812 196.320312 89.847656 196.1875 90.097656 C 196.054688 90.34375 195.964844 90.609375 195.925781 90.886719 C 195.882812 91.164062 195.890625 91.441406 195.945312 91.71875 C 196.421875 94.101562 196.78125 98.1875 194.527344 100.984375 C 194.34375 101.207031 194.152344 101.417969 193.945312 101.613281 C 190.539062 104.890625 182.503906 105.617188 178.542969 102.773438 L 178.515625 102.753906 C 178.1875 102.511719 177.902344 102.226562 177.65625 101.902344 C 177.414062 101.574219 177.222656 101.21875 177.082031 100.835938 C 176.945312 100.453125 176.863281 100.054688 176.839844 99.648438 C 176.816406 99.242188 176.855469 98.839844 176.949219 98.441406 L 178.152344 93.34375 C 178.257812 92.882812 178.234375 92.433594 178.078125 91.988281 C 177.921875 91.542969 177.660156 91.175781 177.285156 90.886719 L 167.105469 82.960938 L 163.164062 94.667969 C 163.039062 95.042969 163.003906 95.421875 163.066406 95.808594 C 163.125 96.195312 163.273438 96.546875 163.503906 96.863281 L 166.175781 100.515625 C 166.441406 100.878906 166.640625 101.273438 166.777344 101.699219 C 166.917969 102.125 166.984375 102.5625 166.984375 103.011719 C 166.980469 103.460938 166.910156 103.898438 166.765625 104.324219 C 166.625 104.746094 166.421875 105.140625 166.152344 105.5 C 165.132812 106.816406 163.9375 107.945312 162.5625 108.886719 C 162.308594 109.066406 162.039062 109.226562 161.757812 109.363281 C 158.925781 110.78125 154.882812 110.28125 151.964844 109.609375 C 150.84375 109.347656 149.859375 108.832031 149.003906 108.0625 C 148.148438 107.292969 147.53125 106.363281 147.152344 105.277344 L 146.585938 103.675781 C 146.5 103.425781 146.371094 103.195312 146.207031 102.984375 C 146.042969 102.777344 145.847656 102.601562 145.625 102.457031 C 145.402344 102.3125 145.160156 102.207031 144.902344 102.144531 C 144.644531 102.078125 144.382812 102.058594 144.117188 102.082031 L 137.9375 102.617188 L 146.8125 112.09375 L 142.957031 111.296875 L 148.261719 115.984375 L 148.449219 116.613281 C 149.371094 116.195312 150.601562 115.675781 152.085938 115.078125 C 159.691406 112.039062 173.980469 107.273438 187.199219 108.121094 C 167.285156 109.519531 154.738281 116.335938 149.339844 119.773438 L 150.003906 121.527344 L 150.488281 122.800781 L 151.242188 124.789062 C 151.503906 124.621094 164.992188 115.96875 181.785156 115.089844 C 179.65625 114.664062 177.515625 114.34375 175.355469 114.140625 C 179.457031 113.375 183.589844 113.082031 187.757812 113.257812 C 191.921875 113.433594 196.015625 114.070312 200.039062 115.175781 C 200.519531 105.421875 200.929688 103.582031 200.980469 103.394531 L 200.980469 103.375 L 205.671875 96.375 Z M 171.507812 95.382812 C 171.171875 95.511719 170.820312 95.570312 170.460938 95.558594 C 170.097656 95.546875 169.753906 95.46875 169.421875 95.320312 C 169.09375 95.175781 168.804688 94.96875 168.554688 94.707031 C 168.304688 94.445312 168.117188 94.144531 167.984375 93.808594 C 167.855469 93.46875 167.792969 93.121094 167.800781 92.757812 C 167.808594 92.394531 167.886719 92.046875 168.03125 91.714844 C 168.175781 91.386719 168.378906 91.09375 168.636719 90.84375 C 168.898438 90.589844 169.195312 90.398438 169.53125 90.265625 C 169.867188 90.132812 170.21875 90.066406 170.578125 90.074219 C 170.941406 90.078125 171.285156 90.152344 171.617188 90.296875 C 171.949219 90.4375 172.242188 90.640625 172.496094 90.898438 C 172.75 91.15625 172.941406 91.453125 173.078125 91.789062 C 173.210938 92.132812 173.277344 92.488281 173.269531 92.855469 C 173.261719 93.222656 173.1875 93.574219 173.039062 93.914062 C 172.890625 94.25 172.683594 94.546875 172.421875 94.800781 C 172.15625 95.054688 171.851562 95.25 171.507812 95.382812 Z M 171.507812 95.382812 " fill-opacity="1" fill-rule="nonzero"/></g><path fill="#b78544" d="M 147.273438 167.058594 C 146.644531 189.164062 157.144531 202.125 153.152344 216.082031 C 153.152344 216.082031 154.761719 208.089844 142.664062 179.101562 C 130.953125 151.050781 158.308594 133.859375 158.660156 133.640625 C 158.398438 133.734375 147.574219 137.625 139.425781 147.664062 C 139.59375 147.390625 150.472656 129.859375 171.363281 125.910156 C 171.363281 125.910156 147.902344 144.953125 147.273438 167.058594 Z M 147.273438 167.058594 " fill-opacity="1" fill-rule="nonzero"/><path fill="#b78544" d="M 172.449219 188.777344 C 169.476562 172.847656 174.164062 162.214844 174.273438 161.960938 C 174.148438 162.078125 164.003906 171.664062 169.347656 193.632812 C 174.273438 213.882812 165.820312 220.9375 165.582031 221.140625 C 165.71875 220.996094 169.824219 216.40625 166.015625 196.300781 C 162.144531 175.867188 166.773438 161.234375 177.832031 156.21875 C 177.714844 156.421875 170.765625 171.859375 172.449219 188.777344 Z M 172.449219 188.777344 " fill-opacity="1" fill-rule="nonzero"/><path fill="#b78544" d="M 180.367188 238.1875 C 180.535156 237.886719 186.644531 222.410156 179.710938 202.183594 C 182.75 205.476562 183.746094 208.527344 183.746094 208.527344 C 183.746094 208.527344 177.84375 179.601562 185.753906 167.652344 C 185.679688 167.882812 182.523438 177.6875 186.695312 201.269531 C 190.925781 225.140625 180.367188 238.1875 180.367188 238.1875 Z M 180.367188 238.1875 " fill-opacity="1" fill-rule="nonzero"/><path fill="#b78544" d="M 199.960938 206.09375 C 196.59375 186.890625 199.433594 179.683594 199.488281 179.546875 C 194.914062 184.777344 196.769531 202.125 197.554688 208.015625 C 197.3125 207.355469 196.894531 206.421875 196.191406 204.734375 C 199.71875 227.792969 191.113281 238.449219 190.289062 239.410156 C 191.289062 238.308594 203.222656 224.6875 199.960938 206.09375 Z M 199.960938 206.09375 " fill-opacity="1" fill-rule="nonzero"/><g clip-path="url(#3651299c66)"><path fill="#b78544" d="M 218.730469 234.542969 C 220.375 219.832031 213.128906 209.738281 213.128906 209.738281 C 217.96875 233.085938 203.773438 245.359375 203.371094 245.703125 C 203.6875 245.316406 217.238281 228.640625 207.832031 198.394531 C 215.464844 204.789062 219.648438 217.363281 219.648438 217.363281 C 219.648438 217.363281 221.015625 210.792969 218.730469 201.980469 C 226.835938 225.488281 218.730469 234.542969 218.730469 234.542969 Z M 218.730469 234.542969 " fill-opacity="1" fill-rule="nonzero"/></g><path fill="#b78544" d="M 187.230469 125.507812 C 176.632812 138.585938 182.910156 158.132812 183.042969 158.578125 C 182.859375 158.21875 176.324219 145.195312 179.710938 132.894531 C 177.8125 136.25 177.292969 136.878906 177.292969 136.878906 C 177.292969 136.878906 179.644531 125.863281 189.0625 122.160156 C 189.0625 122.160156 185.316406 142.863281 193.273438 153.441406 C 193.023438 153.175781 183.457031 143.195312 187.230469 125.507812 Z M 187.230469 125.507812 " fill-opacity="1" fill-rule="nonzero"/><path fill="#b78544" d="M 217.8125 158.871094 C 204.058594 157.078125 200.167969 151.195312 198.582031 147.03125 C 196.992188 142.863281 200.253906 137.050781 207.832031 136.109375 C 207.832031 136.109375 198.21875 139.949219 202.042969 148.164062 C 205.800781 156.253906 217.449219 158.792969 217.8125 158.871094 Z M 217.8125 158.871094 " fill-opacity="1" fill-rule="nonzero"/><path fill="#b78544" d="M 233.890625 166.929688 C 231.71875 171.890625 228.605469 173.25 228.605469 173.25 C 228.605469 173.25 219.734375 171.589844 216.894531 170.789062 C 214.050781 169.988281 209.714844 161.6875 209.714844 161.6875 C 209.714844 161.6875 213.859375 159.824219 217.816406 158.871094 L 213.125 163.066406 L 219.058594 169.261719 L 217.320312 165.222656 C 217.320312 165.222656 223.789062 171.347656 223.996094 171.410156 C 222.179688 167.566406 221.667969 166.402344 221.636719 166.332031 C 221.726562 166.402344 227.464844 171.070312 228.78125 172.105469 C 231.664062 171.15625 233.289062 168.242188 233.890625 166.929688 Z M 233.890625 166.929688 " fill-opacity="1" fill-rule="nonzero"/><g clip-path="url(#da4555015e)"><path fill="#b78544" d="M 236.894531 161.203125 C 232.722656 161.921875 228.632812 160.21875 228.632812 160.21875 L 228.113281 156.824219 L 230.335938 159.367188 L 233.363281 159.644531 L 222.90625 143.042969 L 223.339844 143.394531 C 225.050781 145.644531 234.3125 157.867188 236.894531 161.203125 Z M 236.894531 161.203125 " fill-opacity="1" fill-rule="nonzero"/></g><path fill="#b78544" d="M 205.671875 96.375 L 200.988281 103.371094 L 200.988281 103.390625 C 200.9375 103.578125 200.527344 105.414062 200.046875 115.171875 C 196.027344 114.066406 191.929688 113.425781 187.765625 113.253906 C 183.597656 113.078125 179.464844 113.371094 175.363281 114.136719 C 177.523438 114.339844 179.667969 114.660156 181.792969 115.085938 C 165 115.964844 151.515625 124.617188 151.253906 124.785156 L 150.488281 122.800781 C 154.773438 119.640625 172.578125 107.976562 197.703125 112.136719 L 198.75 102.378906 L 196.347656 105.175781 L 199.066406 88.339844 L 205.207031 85.859375 L 198.875 99.125 Z M 205.671875 96.375 " fill-opacity="1" fill-rule="nonzero"/><g fill="#dfaf67" fill-opacity="1"><g transform="translate(75.076176, 269.885022)"><g><path d="M 21.84375 0 L 1.90625 0 L 1.90625 -17.078125 L 9.0625 -17.078125 L 9.0625 -4.21875 L 21.84375 -4.21875 Z M 21.84375 0 "/></g></g></g><g fill="#dfaf67" fill-opacity="1"><g transform="translate(97.38143, 269.885022)"><g><path d="M 16.65625 0 L 9.5 0 L 9.5 -8.09375 L 0.171875 -17.078125 L 8.109375 -17.078125 L 13.078125 -11.96875 L 18.03125 -17.078125 L 25.96875 -17.078125 L 16.65625 -8.09375 Z M 16.65625 0 "/></g></g></g><g fill="#dfaf67" fill-opacity="1"><g transform="translate(123.51724, 269.885022)"><g><path d="M 12.90625 0.375 C 8.6875 0.375 5.582031 -0.492188 3.59375 -2.234375 C 1.832031 -3.773438 0.953125 -5.875 0.953125 -8.53125 C 0.953125 -11.1875 1.832031 -13.28125 3.59375 -14.8125 C 5.582031 -16.550781 8.6875 -17.421875 12.90625 -17.421875 C 17.132812 -17.421875 20.242188 -16.550781 22.234375 -14.8125 C 23.992188 -13.28125 24.875 -11.1875 24.875 -8.53125 C 24.875 -5.875 23.992188 -3.773438 22.234375 -2.234375 C 20.242188 -0.492188 17.132812 0.375 12.90625 0.375 Z M 12.90625 -4.21875 C 14.644531 -4.21875 15.914062 -4.710938 16.71875 -5.703125 C 17.375 -6.503906 17.703125 -7.445312 17.703125 -8.53125 C 17.703125 -9.625 17.375 -10.566406 16.71875 -11.359375 C 15.914062 -12.359375 14.644531 -12.859375 12.90625 -12.859375 C 11.175781 -12.859375 9.90625 -12.359375 9.09375 -11.359375 C 8.4375 -10.566406 8.109375 -9.625 8.109375 -8.53125 C 8.109375 -7.445312 8.4375 -6.503906 9.09375 -5.703125 C 9.90625 -4.710938 11.175781 -4.21875 12.90625 -4.21875 Z M 12.90625 -4.21875 "/></g></g></g><g fill="#dfaf67" fill-opacity="1"><g transform="translate(149.331847, 269.885022)"><g><path d="M 27.25 0 L 18.71875 0 L 9.0625 -11.5625 L 9.0625 0 L 1.90625 0 L 1.90625 -17.078125 L 10.421875 -17.078125 L 20.078125 -5.578125 L 20.078125 -17.078125 L 27.25 -17.078125 Z M 27.25 0 "/></g></g></g><g fill="#dfaf67" fill-opacity="1"><g transform="translate(178.465482, 269.885022)"><g/></g></g><g fill="#dfaf67" fill-opacity="1"><g transform="translate(184.508717, 269.885022)"><g><path d="M 14.15625 0 L 1.90625 0 L 1.90625 -17.0625 L 14.40625 -17.0625 C 16.632812 -17.0625 18.460938 -16.957031 19.890625 -16.75 C 21.328125 -16.550781 22.4375 -16.234375 23.21875 -15.796875 C 24 -15.367188 24.523438 -14.820312 24.796875 -14.15625 C 25.078125 -13.488281 25.21875 -12.691406 25.21875 -11.765625 C 25.195312 -11.035156 24.992188 -10.429688 24.609375 -9.953125 C 24.234375 -9.472656 23.796875 -9.113281 23.296875 -8.875 C 22.796875 -8.644531 22.351562 -8.53125 21.96875 -8.53125 C 22.34375 -8.53125 22.78125 -8.457031 23.28125 -8.3125 C 23.78125 -8.164062 24.265625 -7.953125 24.734375 -7.671875 C 25.210938 -7.398438 25.609375 -7.0625 25.921875 -6.65625 C 26.234375 -6.257812 26.390625 -5.8125 26.390625 -5.3125 C 26.390625 -4.644531 26.3125 -4.03125 26.15625 -3.46875 C 26 -2.914062 25.6875 -2.425781 25.21875 -2 C 24.757812 -1.570312 24.078125 -1.207031 23.171875 -0.90625 C 22.265625 -0.613281 21.078125 -0.390625 19.609375 -0.234375 C 18.148438 -0.078125 16.332031 0 14.15625 0 Z M 13.75 -10 C 14.789062 -10 15.597656 -10.050781 16.171875 -10.15625 C 16.753906 -10.257812 17.15625 -10.414062 17.375 -10.625 C 17.59375 -10.832031 17.703125 -11.097656 17.703125 -11.421875 C 17.703125 -11.753906 17.59375 -12.023438 17.375 -12.234375 C 17.15625 -12.453125 16.753906 -12.609375 16.171875 -12.703125 C 15.597656 -12.804688 14.789062 -12.859375 13.75 -12.859375 L 9.0625 -12.859375 L 9.0625 -10 Z M 13.75 -4.21875 C 14.820312 -4.21875 15.691406 -4.242188 16.359375 -4.296875 C 17.023438 -4.347656 17.507812 -4.472656 17.8125 -4.671875 C 18.125 -4.867188 18.28125 -5.191406 18.28125 -5.640625 C 18.28125 -6.085938 18.125 -6.410156 17.8125 -6.609375 C 17.507812 -6.816406 17.023438 -6.941406 16.359375 -6.984375 C 15.691406 -7.035156 14.820312 -7.0625 13.75 -7.0625 L 9.0625 -7.0625 L 9.0625 -4.21875 Z M 13.75 -4.21875 "/></g></g></g><g fill="#dfaf67" fill-opacity="1"><g transform="translate(211.83414, 269.885022)"><g><path d="M 28.6875 0 L 21.421875 0 L 19.8125 -2.796875 L 9.046875 -2.796875 L 7.4375 0 L 0.171875 0 L 11.109375 -17.0625 L 17.75 -17.0625 Z M 17.40625 -7.015625 L 14.4375 -12.203125 L 11.46875 -7.015625 Z M 17.40625 -7.015625 "/></g></g></g><g fill="#dfaf67" fill-opacity="1"><g transform="translate(240.682267, 269.885022)"><g><path d="M 27.25 0 L 18.71875 0 L 9.0625 -11.5625 L 9.0625 0 L 1.90625 0 L 1.90625 -17.078125 L 10.421875 -17.078125 L 20.078125 -5.578125 L 20.078125 -17.078125 L 27.25 -17.078125 Z M 27.25 0 "/></g></g></g><g fill="#dfaf67" fill-opacity="1"><g transform="translate(269.815902, 269.885022)"><g><path d="M 29.9375 0 L 20.640625 0 L 13.3125 -5.71875 L 9.0625 -2.828125 L 9.0625 0 L 1.90625 0 L 1.90625 -17.078125 L 9.0625 -17.078125 L 9.0625 -9.171875 L 20.5625 -17.078125 L 29.9375 -17.078125 L 17.703125 -8.71875 Z M 29.9375 0 "/></g></g></g></svg>