<svg xmlns="http://www.w3.org/2000/svg" xmlns:xlink="http://www.w3.org/1999/xlink" width="500" zoomAndPan="magnify" viewBox="0 0 375 374.999991" height="500" preserveAspectRatio="xMidYMid meet" version="1.0"><defs><clipPath id="f4152d3cea"><path d="M 91 93 L 286.5 93 L 286.5 349.835938 L 91 349.835938 Z M 91 93 " clip-rule="nonzero"/></clipPath><clipPath id="bc4e079ff1"><path d="M 88.5 25.085938 L 225 25.085938 L 225 109 L 88.5 109 Z M 88.5 25.085938 " clip-rule="nonzero"/></clipPath><clipPath id="e36acfa7e1"><path d="M 219 255 L 258 255 L 258 349.835938 L 219 349.835938 Z M 219 255 " clip-rule="nonzero"/></clipPath><clipPath id="bbcc129782"><path d="M 258 144 L 286.5 144 L 286.5 182 L 258 182 Z M 258 144 " clip-rule="nonzero"/></clipPath></defs><g clip-path="url(#f4152d3cea)"><path fill="#dfaf67" d="M 269.933594 179.246094 C 269.933594 179.246094 278.117188 182.648438 286.460938 181.207031 C 281.292969 174.558594 262.769531 150.164062 259.363281 145.660156 L 258.8125 144.972656 L 263.640625 146.667969 C 259.148438 142.035156 239.53125 114.460938 239.53125 114.460938 L 243.914062 114.425781 C 220.3125 94.734375 184.234375 93.597656 184.234375 93.597656 C 184.234375 93.597656 189.230469 95.125 196.367188 101.457031 C 195.589844 101.179688 128.25 79.121094 91.859375 154.195312 C 108.152344 134.144531 129.800781 126.398438 130.347656 126.214844 C 129.644531 126.632812 74.945312 160.953125 98.359375 216.925781 C 122.53125 274.773438 119.304688 290.722656 119.304688 290.722656 C 119.5625 290.226562 129.347656 270.8125 125.164062 236.3125 C 120.980469 201.8125 134.015625 185.773438 134.308594 185.421875 C 134.070312 185.996094 122.703125 213.914062 134.308594 247.808594 C 146.023438 282.054688 144.105469 300.820312 144.105469 300.820312 C 144.597656 300.402344 161.507812 286.335938 151.65625 245.933594 C 140.96875 202.101562 161.257812 182.96875 161.507812 182.738281 C 161.289062 183.242188 151.914062 204.441406 157.859375 236.246094 C 159.867188 246.753906 163.121094 256.863281 167.613281 266.574219 C 183.929688 302.238281 173.886719 334.269531 173.71875 334.828125 C 173.71875 334.828125 194.835938 308.792969 186.390625 261.171875 C 178.070312 214.128906 184.378906 194.550781 184.53125 194.089844 C 184.53125 194.121094 184.53125 194.152344 184.53125 194.183594 C 184.457031 195.933594 183.550781 222.359375 194.390625 251.558594 C 209.691406 292.769531 193.453125 337.414062 193.453125 337.414062 L 193.566406 337.285156 C 195.5625 335.09375 219.433594 307.910156 212.914062 270.8125 C 206.171875 232.492188 211.859375 218.113281 211.96875 217.84375 C 211.96875 217.84375 213.882812 252.1875 224.675781 279.375 C 235.40625 306.425781 219.914062 349.324219 219.734375 349.820312 C 220.539062 349.140625 248.929688 324.644531 239.253906 278.058594 C 239.253906 278.058594 253.738281 298.203125 250.457031 327.554688 C 250.457031 327.554688 266.644531 309.492188 250.457031 262.578125 C 263.84375 263.28125 276.503906 252.488281 276.503906 252.488281 C 276.503906 252.488281 241.539062 251.082031 226.054688 229.484375 C 237.765625 235.816406 247.640625 236.285156 247.640625 236.285156 C 247.640625 236.285156 221.164062 218.476562 220.90625 184.015625 C 220.90625 184.015625 214.804688 192.980469 215.050781 207.265625 C 215.050781 207.265625 187.914062 188.125 186.121094 152.894531 C 181.71875 165.089844 179.109375 176.015625 179.109375 176.015625 C 178.824219 175.128906 166.285156 136.121094 187.476562 110.046875 C 179.945312 145.320312 199.0625 165.253906 199.5625 165.761719 C 190.492188 145.804688 208.984375 127.972656 208.984375 127.972656 L 228.667969 131.140625 C 213.523438 133.019531 206.992188 144.621094 210.167969 152.929688 C 213.34375 161.242188 221.121094 172.976562 248.632812 176.558594 C 240.738281 178.457031 232.457031 182.179688 232.457031 182.179688 C 232.457031 182.179688 241.140625 198.746094 246.816406 200.34375 C 252.492188 201.941406 270.242188 205.25 270.242188 205.25 C 270.242188 205.25 276.46875 202.535156 280.8125 192.636719 L 280.949219 192.328125 C 281.082031 192.023438 281.210938 191.710938 281.339844 191.386719 L 281.359375 191.328125 C 277.175781 188.539062 264.585938 182.082031 264.585938 182.082031 L 268.921875 172.464844 Z M 223.542969 141.84375 C 236.808594 139.933594 250.296875 146.0625 250.296875 146.0625 L 247.96875 148.351562 L 257.125 164.246094 C 246.9375 149.40625 223.542969 141.84375 223.542969 141.84375 Z M 223.542969 141.84375 " fill-opacity="1" fill-rule="nonzero"/></g><path fill="#dfaf67" d="M 238.929688 210.484375 C 238.929688 210.484375 251.117188 216.429688 252.160156 224.289062 L 253.464844 218.054688 C 253.464844 218.054688 258.433594 223.335938 254.753906 234.15625 C 264.816406 225.949219 270.230469 212.242188 270.230469 212.242188 C 270.230469 212.242188 255.070312 202.28125 238.929688 210.484375 Z M 238.929688 210.484375 " fill-opacity="1" fill-rule="nonzero"/><g clip-path="url(#bc4e079ff1)"><path fill="#dfaf67" d="M 210.417969 57.339844 L 223.085938 30.867188 L 210.792969 35.820312 L 207.492188 37.148438 C 206.96875 37.359375 206.496094 37.648438 206.078125 38.023438 C 205.65625 38.398438 205.3125 38.832031 205.046875 39.328125 C 204.777344 39.820312 204.601562 40.347656 204.519531 40.902344 C 204.4375 41.457031 204.449219 42.011719 204.5625 42.5625 C 205.515625 47.316406 206.234375 55.46875 201.722656 61.050781 C 201.359375 61.496094 200.972656 61.914062 200.558594 62.308594 C 193.746094 68.84375 177.679688 70.296875 169.753906 64.625 L 169.699219 64.582031 C 169.046875 64.097656 168.472656 63.53125 167.984375 62.878906 C 167.496094 62.226562 167.113281 61.519531 166.835938 60.753906 C 166.558594 59.988281 166.394531 59.199219 166.351562 58.386719 C 166.304688 57.574219 166.378906 56.769531 166.570312 55.980469 L 168.972656 45.804688 C 169.078125 45.355469 169.121094 44.902344 169.09375 44.441406 C 169.070312 43.980469 168.980469 43.535156 168.828125 43.101562 C 168.675781 42.667969 168.464844 42.261719 168.195312 41.890625 C 167.925781 41.515625 167.609375 41.1875 167.246094 40.90625 L 146.878906 25.085938 L 138.996094 48.449219 C 138.746094 49.191406 138.683594 49.949219 138.800781 50.722656 C 138.921875 51.496094 139.214844 52.199219 139.679688 52.832031 L 145.023438 60.117188 C 145.550781 60.839844 145.953125 61.625 146.230469 62.476562 C 146.507812 63.328125 146.640625 64.199219 146.636719 65.097656 C 146.632812 65.992188 146.488281 66.863281 146.207031 67.710938 C 145.921875 68.5625 145.511719 69.34375 144.976562 70.0625 C 142.9375 72.691406 140.542969 74.941406 137.796875 76.816406 C 137.285156 77.179688 136.75 77.496094 136.1875 77.773438 C 130.527344 80.597656 122.433594 79.605469 116.597656 78.261719 C 115.5 78.003906 114.445312 77.613281 113.445312 77.089844 C 112.441406 76.566406 111.519531 75.929688 110.679688 75.171875 C 109.839844 74.417969 109.105469 73.570312 108.476562 72.628906 C 107.851562 71.6875 107.351562 70.683594 106.976562 69.617188 L 105.847656 66.421875 C 105.671875 65.921875 105.417969 65.460938 105.085938 65.046875 C 104.757812 64.628906 104.367188 64.277344 103.921875 63.988281 C 103.472656 63.699219 102.992188 63.492188 102.476562 63.363281 C 101.960938 63.234375 101.4375 63.195312 100.90625 63.238281 L 88.542969 64.304688 L 106.296875 83.21875 L 98.585938 81.625 L 109.195312 90.984375 L 109.570312 92.242188 C 111.410156 91.40625 113.871094 90.367188 116.847656 89.175781 C 132.054688 83.105469 160.628906 73.601562 187.070312 75.292969 C 147.242188 78.078125 122.144531 91.679688 111.347656 98.539062 L 112.679688 102.039062 L 113.644531 104.585938 L 115.160156 108.550781 C 115.683594 108.21875 142.652344 90.953125 176.238281 89.199219 C 171.988281 88.34375 167.703125 87.710938 163.382812 87.300781 C 171.582031 85.777344 179.851562 85.191406 188.183594 85.539062 C 196.515625 85.890625 204.707031 87.167969 212.75 89.371094 C 213.710938 69.902344 214.53125 66.238281 214.632812 65.859375 L 214.632812 65.820312 L 224.015625 51.851562 Z M 155.691406 49.875 C 155.355469 50 155.011719 50.09375 154.660156 50.152344 C 154.304688 50.210938 153.949219 50.238281 153.59375 50.226562 C 153.234375 50.214844 152.882812 50.171875 152.53125 50.089844 C 152.183594 50.011719 151.84375 49.898438 151.519531 49.753906 C 151.191406 49.609375 150.882812 49.429688 150.589844 49.226562 C 150.296875 49.019531 150.027344 48.785156 149.78125 48.527344 C 149.535156 48.265625 149.316406 47.988281 149.125 47.683594 C 148.933594 47.382812 148.773438 47.0625 148.640625 46.730469 C 148.511719 46.394531 148.417969 46.054688 148.355469 45.699219 C 148.292969 45.347656 148.265625 44.992188 148.273438 44.636719 C 148.28125 44.277344 148.324219 43.925781 148.402344 43.574219 C 148.480469 43.226562 148.589844 42.886719 148.734375 42.558594 C 148.875 42.230469 149.050781 41.921875 149.253906 41.625 C 149.457031 41.332031 149.691406 41.0625 149.949219 40.8125 C 150.203125 40.566406 150.484375 40.34375 150.785156 40.148438 C 151.085938 39.957031 151.402344 39.792969 151.734375 39.664062 C 152.070312 39.53125 152.410156 39.433594 152.761719 39.367188 C 153.117188 39.304688 153.46875 39.273438 153.828125 39.28125 C 154.1875 39.285156 154.539062 39.324219 154.890625 39.398438 C 155.242188 39.472656 155.578125 39.582031 155.910156 39.722656 C 156.238281 39.863281 156.550781 40.035156 156.84375 40.238281 C 157.140625 40.441406 157.414062 40.667969 157.664062 40.925781 C 157.914062 41.179688 158.136719 41.457031 158.332031 41.757812 C 158.527344 42.058594 158.695312 42.371094 158.828125 42.703125 C 158.960938 43.042969 159.058594 43.390625 159.125 43.75 C 159.1875 44.105469 159.21875 44.46875 159.210938 44.832031 C 159.203125 45.195312 159.160156 45.554688 159.082031 45.910156 C 159.007812 46.261719 158.894531 46.609375 158.75 46.941406 C 158.601562 47.273438 158.425781 47.589844 158.21875 47.886719 C 158.007812 48.183594 157.773438 48.460938 157.511719 48.710938 C 157.25 48.964844 156.964844 49.1875 156.660156 49.382812 C 156.351562 49.578125 156.027344 49.742188 155.691406 49.875 Z M 155.691406 49.875 " fill-opacity="1" fill-rule="nonzero"/></g><path fill="#b78544" d="M 107.21875 192.898438 C 105.964844 237.003906 126.957031 262.871094 118.976562 290.714844 C 118.976562 290.714844 122.195312 274.773438 98.003906 216.925781 C 74.574219 160.953125 129.289062 126.652344 129.992188 126.214844 C 129.46875 126.398438 107.816406 134.160156 91.523438 154.195312 C 91.863281 153.652344 113.617188 118.667969 155.402344 110.785156 C 155.402344 110.785156 108.472656 148.785156 107.21875 192.898438 Z M 107.21875 192.898438 " fill-opacity="1" fill-rule="nonzero"/><path fill="#b78544" d="M 157.574219 236.230469 C 151.625 204.445312 161 183.230469 161.21875 182.726562 C 160.96875 182.957031 140.679688 202.085938 151.367188 245.921875 C 161.21875 286.324219 144.3125 300.402344 143.839844 300.808594 C 144.105469 300.519531 152.316406 291.359375 144.703125 251.242188 C 136.964844 210.46875 146.21875 181.269531 168.335938 171.261719 C 168.101562 171.671875 154.199219 202.472656 157.574219 236.230469 Z M 157.574219 236.230469 " fill-opacity="1" fill-rule="nonzero"/><path fill="#b78544" d="M 173.40625 334.824219 C 173.742188 334.226562 185.957031 303.347656 172.089844 262.988281 C 178.167969 269.558594 180.164062 275.636719 180.164062 275.636719 C 180.164062 275.636719 168.363281 217.921875 184.179688 194.082031 C 184.03125 194.542969 177.714844 214.105469 186.0625 261.160156 C 194.527344 308.789062 173.40625 334.824219 173.40625 334.824219 Z M 173.40625 334.824219 " fill-opacity="1" fill-rule="nonzero"/><path fill="#b78544" d="M 212.59375 270.785156 C 205.855469 232.46875 211.539062 218.089844 211.648438 217.816406 C 202.5 228.246094 206.210938 262.871094 207.777344 274.617188 C 207.296875 273.304688 206.460938 271.445312 205.054688 268.078125 C 212.109375 314.082031 194.894531 335.351562 193.25 337.261719 C 195.246094 335.070312 219.117188 307.886719 212.59375 270.785156 Z M 212.59375 270.785156 " fill-opacity="1" fill-rule="nonzero"/><g clip-path="url(#e36acfa7e1)"><path fill="#b78544" d="M 250.132812 327.554688 C 253.417969 298.203125 238.929688 278.058594 238.929688 278.058594 C 248.605469 324.644531 220.21875 349.140625 219.414062 349.820312 C 220.046875 349.050781 247.144531 315.777344 228.332031 255.425781 C 243.601562 268.179688 251.96875 293.277344 251.96875 293.277344 C 251.96875 293.277344 254.699219 280.160156 250.132812 262.578125 C 266.34375 309.488281 250.132812 327.554688 250.132812 327.554688 Z M 250.132812 327.554688 " fill-opacity="1" fill-rule="nonzero"/></g><path fill="#b78544" d="M 187.132812 109.988281 C 165.941406 136.082031 178.492188 175.085938 178.753906 175.972656 C 178.390625 175.257812 165.320312 149.269531 172.09375 124.726562 C 168.300781 131.417969 167.253906 132.671875 167.253906 132.671875 C 167.253906 132.671875 171.960938 110.695312 190.792969 103.308594 C 190.792969 103.308594 183.300781 144.613281 199.21875 165.722656 C 198.71875 165.195312 179.585938 145.277344 187.132812 109.988281 Z M 187.132812 109.988281 " fill-opacity="1" fill-rule="nonzero"/><path fill="#b78544" d="M 248.296875 176.558594 C 220.785156 172.976562 213.007812 161.246094 209.832031 152.929688 C 206.65625 144.617188 213.179688 133.019531 228.332031 131.140625 C 228.332031 131.140625 209.109375 138.804688 216.753906 155.195312 C 224.273438 171.332031 247.570312 176.402344 248.296875 176.558594 Z M 248.296875 176.558594 " fill-opacity="1" fill-rule="nonzero"/><path fill="#b78544" d="M 280.453125 192.636719 C 276.109375 202.535156 269.882812 205.25 269.882812 205.25 C 269.882812 205.25 252.140625 201.941406 246.457031 200.34375 C 240.769531 198.746094 232.097656 182.179688 232.097656 182.179688 C 232.097656 182.179688 240.390625 178.457031 248.300781 176.5625 L 238.917969 184.925781 L 250.785156 197.289062 L 247.3125 189.230469 C 247.3125 189.230469 260.25 201.457031 260.664062 201.582031 C 257.03125 193.90625 256.003906 191.585938 255.945312 191.445312 C 256.121094 191.585938 267.59375 200.902344 270.234375 202.96875 C 275.996094 201.070312 279.246094 195.257812 280.453125 192.636719 Z M 280.453125 192.636719 " fill-opacity="1" fill-rule="nonzero"/><g clip-path="url(#bbcc129782)"><path fill="#b78544" d="M 286.460938 181.207031 C 278.117188 182.648438 269.933594 179.246094 269.933594 179.246094 L 268.898438 172.476562 L 273.34375 177.542969 L 279.398438 178.105469 L 258.480469 144.976562 L 259.34375 145.679688 C 262.769531 150.164062 281.292969 174.558594 286.460938 181.207031 Z M 286.460938 181.207031 " fill-opacity="1" fill-rule="nonzero"/></g><path fill="#b78544" d="M 224.015625 51.851562 L 214.648438 65.8125 L 214.648438 65.851562 C 214.546875 66.230469 213.726562 69.894531 212.765625 89.363281 C 204.722656 87.15625 196.535156 85.878906 188.199219 85.53125 C 179.867188 85.183594 171.601562 85.769531 163.398438 87.292969 C 167.71875 87.703125 172.003906 88.335938 176.257812 89.191406 C 142.671875 90.945312 115.699219 108.210938 115.175781 108.542969 L 113.644531 104.585938 C 122.222656 98.277344 157.828125 75 208.078125 83.304688 L 210.167969 63.835938 L 205.367188 69.417969 L 210.804688 35.820312 L 223.085938 30.867188 L 210.417969 57.339844 Z M 224.015625 51.851562 " fill-opacity="1" fill-rule="nonzero"/></svg>